<svg width="222" height="34" viewBox="0 0 222 34" fill="none" xmlns="http://www.w3.org/2000/svg">
<path d="M10.268 27.432C8.276 27.432 6.344 27.168 4.472 26.64C2.624 26.088 1.136 25.38 0.00800003 24.516L1.988 20.124C3.068 20.916 4.352 21.552 5.84 22.032C7.328 22.512 8.816 22.752 10.304 22.752C11.96 22.752 13.184 22.512 13.976 22.032C14.768 21.528 15.164 20.868 15.164 20.052C15.164 19.452 14.924 18.96 14.444 18.576C13.988 18.168 13.388 17.844 12.644 17.604C11.924 17.364 10.94 17.1 9.692 16.812C7.772 16.356 6.2 15.9 4.976 15.444C3.752 14.988 2.696 14.256 1.808 13.248C0.944 12.24 0.512 10.896 0.512 9.216C0.512 7.752 0.908 6.432 1.7 5.256C2.492 4.056 3.68 3.108 5.264 2.412C6.872 1.716 8.828 1.368 11.132 1.368C12.74 1.368 14.312 1.56 15.848 1.944C17.384 2.328 18.728 2.88 19.88 3.6L18.08 8.028C15.752 6.708 13.424 6.048 11.096 6.048C9.464 6.048 8.252 6.312 7.46 6.84C6.692 7.368 6.308 8.064 6.308 8.928C6.308 9.792 6.752 10.44 7.64 10.872C8.552 11.28 9.932 11.688 11.78 12.096C13.7 12.552 15.272 13.008 16.496 13.464C17.72 13.92 18.764 14.64 19.628 15.624C20.516 16.608 20.96 17.94 20.96 19.62C20.96 21.06 20.552 22.38 19.736 23.58C18.944 24.756 17.744 25.692 16.136 26.388C14.528 27.084 12.572 27.432 10.268 27.432ZM36.321 7.344C38.721 7.344 40.653 8.064 42.117 9.504C43.605 10.944 44.349 13.08 44.349 15.912V27H38.733V16.776C38.733 15.24 38.397 14.1 37.725 13.356C37.053 12.588 36.081 12.204 34.809 12.204C33.393 12.204 32.265 12.648 31.425 13.536C30.585 14.4 30.165 15.696 30.165 17.424V27H24.549V0.287998H30.165V9.648C30.909 8.904 31.809 8.34 32.865 7.956C33.921 7.548 35.073 7.344 36.321 7.344ZM57.2517 7.344C60.2517 7.344 62.5557 8.064 64.1637 9.504C65.7717 10.92 66.5757 13.068 66.5757 15.948V27H61.3197V24.588C60.2637 26.388 58.2957 27.288 55.4157 27.288C53.9277 27.288 52.6317 27.036 51.5277 26.532C50.4477 26.028 49.6197 25.332 49.0437 24.444C48.4677 23.556 48.1797 22.548 48.1797 21.42C48.1797 19.62 48.8517 18.204 50.1957 17.172C51.5637 16.14 53.6637 15.624 56.4957 15.624H60.9597C60.9597 14.4 60.5877 13.464 59.8437 12.816C59.0997 12.144 57.9837 11.808 56.4957 11.808C55.4637 11.808 54.4437 11.976 53.4357 12.312C52.4517 12.624 51.6117 13.056 50.9157 13.608L48.8997 9.684C49.9557 8.94 51.2157 8.364 52.6797 7.956C54.1677 7.548 55.6917 7.344 57.2517 7.344ZM56.8197 23.508C57.7797 23.508 58.6317 23.292 59.3757 22.86C60.1197 22.404 60.6477 21.744 60.9597 20.88V18.9H57.1077C54.8037 18.9 53.6517 19.656 53.6517 21.168C53.6517 21.888 53.9277 22.464 54.4797 22.896C55.0557 23.304 55.8357 23.508 56.8197 23.508ZM77.0224 10.188C77.6944 9.252 78.5944 8.544 79.7224 8.064C80.8744 7.584 82.1944 7.344 83.6824 7.344V12.528C83.0584 12.48 82.6384 12.456 82.4224 12.456C80.8144 12.456 79.5544 12.912 78.6424 13.824C77.7304 14.712 77.2744 16.056 77.2744 17.856V27H71.6584V7.632H77.0224V10.188ZM105.818 17.388C105.818 17.46 105.782 17.964 105.71 18.9H91.0579C91.3219 20.1 91.9459 21.048 92.9299 21.744C93.9139 22.44 95.1379 22.788 96.6019 22.788C97.6099 22.788 98.4979 22.644 99.2659 22.356C100.058 22.044 100.79 21.564 101.462 20.916L104.45 24.156C102.626 26.244 99.9619 27.288 96.4579 27.288C94.2739 27.288 92.3419 26.868 90.6619 26.028C88.9819 25.164 87.6859 23.976 86.7739 22.464C85.8619 20.952 85.4059 19.236 85.4059 17.316C85.4059 15.42 85.8499 13.716 86.7379 12.204C87.6499 10.668 88.8859 9.48 90.4459 8.64C92.0299 7.776 93.7939 7.344 95.7379 7.344C97.6339 7.344 99.3499 7.752 100.886 8.568C102.422 9.384 103.622 10.56 104.486 12.096C105.374 13.608 105.818 15.372 105.818 17.388ZM95.7739 11.592C94.5019 11.592 93.4339 11.952 92.5699 12.672C91.7059 13.392 91.1779 14.376 90.9859 15.624H100.526C100.334 14.4 99.8059 13.428 98.9419 12.708C98.0779 11.964 97.0219 11.592 95.7739 11.592ZM126.549 21.6H114.849L112.617 27H106.641L117.873 1.8H123.633L134.901 27H128.781L126.549 21.6ZM124.713 17.172L120.717 7.524L116.721 17.172H124.713ZM145.795 27.432C143.803 27.432 141.871 27.168 139.999 26.64C138.151 26.088 136.663 25.38 135.535 24.516L137.515 20.124C138.595 20.916 139.879 21.552 141.367 22.032C142.855 22.512 144.343 22.752 145.831 22.752C147.487 22.752 148.711 22.512 149.503 22.032C150.295 21.528 150.691 20.868 150.691 20.052C150.691 19.452 150.451 18.96 149.971 18.576C149.515 18.168 148.915 17.844 148.171 17.604C147.451 17.364 146.467 17.1 145.219 16.812C143.299 16.356 141.727 15.9 140.503 15.444C139.279 14.988 138.223 14.256 137.335 13.248C136.471 12.24 136.039 10.896 136.039 9.216C136.039 7.752 136.435 6.432 137.227 5.256C138.019 4.056 139.207 3.108 140.791 2.412C142.399 1.716 144.355 1.368 146.659 1.368C148.267 1.368 149.839 1.56 151.375 1.944C152.911 2.328 154.255 2.88 155.407 3.6L153.607 8.028C151.279 6.708 148.951 6.048 146.623 6.048C144.991 6.048 143.779 6.312 142.987 6.84C142.219 7.368 141.835 8.064 141.835 8.928C141.835 9.792 142.279 10.44 143.167 10.872C144.079 11.28 145.459 11.688 147.307 12.096C149.227 12.552 150.799 13.008 152.023 13.464C153.247 13.92 154.291 14.64 155.155 15.624C156.043 16.608 156.487 17.94 156.487 19.62C156.487 21.06 156.079 22.38 155.263 23.58C154.471 24.756 153.271 25.692 151.663 26.388C150.055 27.084 148.099 27.432 145.795 27.432ZM171.524 7.344C173.324 7.344 174.956 7.764 176.42 8.604C177.908 9.42 179.072 10.584 179.912 12.096C180.752 13.584 181.172 15.324 181.172 17.316C181.172 19.308 180.752 21.06 179.912 22.572C179.072 24.06 177.908 25.224 176.42 26.064C174.956 26.88 173.324 27.288 171.524 27.288C169.052 27.288 167.108 26.508 165.692 24.948V33.984H160.076V7.632H165.44V9.864C166.832 8.184 168.86 7.344 171.524 7.344ZM170.552 22.68C171.992 22.68 173.168 22.2 174.08 21.24C175.016 20.256 175.484 18.948 175.484 17.316C175.484 15.684 175.016 14.388 174.08 13.428C173.168 12.444 171.992 11.952 170.552 11.952C169.112 11.952 167.924 12.444 166.988 13.428C166.076 14.388 165.62 15.684 165.62 17.316C165.62 18.948 166.076 20.256 166.988 21.24C167.924 22.2 169.112 22.68 170.552 22.68ZM194.148 27.288C192.108 27.288 190.272 26.868 188.64 26.028C187.032 25.164 185.772 23.976 184.86 22.464C183.948 20.952 183.492 19.236 183.492 17.316C183.492 15.396 183.948 13.68 184.86 12.168C185.772 10.656 187.032 9.48 188.64 8.64C190.272 7.776 192.108 7.344 194.148 7.344C196.188 7.344 198.012 7.776 199.62 8.64C201.228 9.48 202.488 10.656 203.4 12.168C204.312 13.68 204.768 15.396 204.768 17.316C204.768 19.236 204.312 20.952 203.4 22.464C202.488 23.976 201.228 25.164 199.62 26.028C198.012 26.868 196.188 27.288 194.148 27.288ZM194.148 22.68C195.588 22.68 196.764 22.2 197.676 21.24C198.612 20.256 199.08 18.948 199.08 17.316C199.08 15.684 198.612 14.388 197.676 13.428C196.764 12.444 195.588 11.952 194.148 11.952C192.708 11.952 191.52 12.444 190.584 13.428C189.648 14.388 189.18 15.684 189.18 17.316C189.18 18.948 189.648 20.256 190.584 21.24C191.52 22.2 192.708 22.68 194.148 22.68ZM221.014 26.064C220.462 26.472 219.778 26.784 218.962 27C218.17 27.192 217.33 27.288 216.442 27.288C214.138 27.288 212.35 26.7 211.078 25.524C209.83 24.348 209.206 22.62 209.206 20.34V12.384H206.218V8.064H209.206V3.348H214.822V8.064H219.646V12.384H214.822V20.268C214.822 21.084 215.026 21.72 215.434 22.176C215.866 22.608 216.466 22.824 217.234 22.824C218.122 22.824 218.878 22.584 219.502 22.104L221.014 26.064Z" fill="white"/>
</svg>
